<svg xmlns="http://www.w3.org/2000/svg" viewBox="0 0 900 220" width="900" height="220"
     role="img" aria-label="The ten phases of an importdb run -- Discover, Define, Graph, Plan, Strip, Load, Rebuild, FK define, Stats, Triggers -- with the middle four marked as the shape that matters: strip the constraints, load into bare heaps, build afterwards. Below the rail, each phase's measured share of a 3.93 million row run: Load 17 percent, Rebuild 29 percent, FK define 51 percent, and every other phase under a second.">
  <title>The ten phases, and where the time goes</title>
  <!-- GENERATED by tools/gen_figures.py; edit that, not this. -->
  <style>
    /* CUBRID's brand hues, sampled from the official tangram mark. The logo
       palette is tuned for fills, not for 11px text, so text takes darkened
       variants and only fills and strokes get the pure values. */
    .bg    { fill: #ffffff; }
    .ink   { fill: #1D1D1B; }
    .muted { fill: #5b6470; }
    .good  { fill: #00801F; }
    .chev { fill: none; stroke: #b9c1ca; stroke-width: 1.5; stroke-linecap: round; stroke-linejoin: round; }
    .axis { stroke: #dfe3e8; stroke-width: 1; }
    .st   { fill: #ffffff; stroke: #dfe3e8; stroke-width: 1.2; }
    .done { fill: #f1fbf4; stroke: #9fdeb4; stroke-width: 1.2; }
    .edge { fill: #12A03B; }
    .hot  { fill: none; stroke: #12A03B; stroke-width: 1.8; opacity: 0; }
    .grp  { fill: none; stroke: #12A03B; stroke-width: 1.1; stroke-dasharray: 4 3; }
    .bar  { fill: #12A03B; }

    @media (prefers-color-scheme: dark) {
      .bg    { fill: #0d1117; }
      .ink   { fill: #e9edf2; }
      .muted { fill: #98a1ad; }
      .good  { fill: #3CE066; }
      .chev { stroke: #4a525c; }
      .axis { stroke: #2b313a; }
      .st   { fill: #14181e; stroke: #2b313a; }
      .done { fill: #0e1f14; stroke: #2c6b41; }
      .edge { fill: #3CE066; }
      .hot  { stroke: #3CE066; }
      .grp  { stroke: #2c6b41; }
      .bar  { fill: #3CE066; }
    }

    .hdr { font-family: ui-monospace, "SFMono-Regular", Menlo, Consolas, monospace;
           font-size: 12.5px; font-weight: 700; }
    .ph { font-family: ui-sans-serif, -apple-system, "Segoe UI", Roboto, Helvetica, Arial, sans-serif;
           font-size: 11.5px; font-weight: 600; }
    .ord { font-family: ui-monospace, "SFMono-Regular", Menlo, Consolas, monospace;
           font-size: 9px; }
    .gl { font-family: ui-sans-serif, -apple-system, "Segoe UI", Roboto, Helvetica, Arial, sans-serif;
           font-size: 10.5px; font-weight: 600; }
    .pctl { font-family: ui-sans-serif, -apple-system, "Segoe UI", Roboto, Helvetica, Arial, sans-serif;
           font-size: 11.5px; font-weight: 700; }
    .note { font-family: ui-sans-serif, -apple-system, "Segoe UI", Roboto, Helvetica, Arial, sans-serif;
           font-size: 11.5px; }
    .a0 { animation:p0 8s linear infinite; }
    .a1 { animation:p1 8s linear infinite; }
    .a2 { animation:p2 8s linear infinite; }
    .a3 { animation:p3 8s linear infinite; }
    .a4 { animation:p4 8s linear infinite; }
    .a5 { animation:p5 8s linear infinite; }
    .a6 { animation:p6 8s linear infinite; }
    .a7 { animation:p7 8s linear infinite; }
    .a8 { animation:p8 8s linear infinite; }
    .a9 { animation:p9 8s linear infinite; }
    .a10 { animation:p10 8s linear infinite; }
    .a11 { animation:p11 8s linear infinite; }
    .a12 { animation:p12 8s linear infinite; }
    .a13 { animation:p13 8s linear infinite; }
    .a14 { animation:p14 8s linear infinite; }
    .a15 { animation:p15 8s linear infinite; }
    .a16 { animation:p16 8s linear infinite; }
    .a17 { animation:p17 8s linear infinite; }
    .a18 { animation:p18 8s linear infinite; }
    .a19 { animation:p19 8s linear infinite; }
    .a20 { transform-box:fill-box;transform-origin:50% 0%;animation:p20 8s linear infinite; }
    .a21 { transform-box:fill-box;transform-origin:50% 0%;animation:p21 8s linear infinite; }
    .a22 { transform-box:fill-box;transform-origin:50% 0%;animation:p22 8s linear infinite; }
    .a23 { transform-box:fill-box;transform-origin:50% 0%;animation:p23 8s linear infinite; }
    .a24 { transform-box:fill-box;transform-origin:50% 0%;animation:p24 8s linear infinite; }
    .a25 { transform-box:fill-box;transform-origin:50% 0%;animation:p25 8s linear infinite; }
    .a26 { transform-box:fill-box;transform-origin:50% 0%;animation:p26 8s linear infinite; }
    .a27 { transform-box:fill-box;transform-origin:50% 0%;animation:p27 8s linear infinite; }
    .a28 { transform-box:fill-box;transform-origin:50% 0%;animation:p28 8s linear infinite; }
    .a29 { transform-box:fill-box;transform-origin:50% 0%;animation:p29 8s linear infinite; }
    .a30 { animation:p30 8s linear infinite; }
    .a31 { animation:p31 8s linear infinite; }
    .a32 { animation:p32 8s linear infinite; }
    @media (prefers-reduced-motion: reduce) { * { animation: none !important; } }
    @keyframes p0 { 0%,3.75%{opacity:0} 5.25%,100%{opacity:1} }
    @keyframes p1 { 0%,3.75%{opacity:0} 4.5%,6.25%{opacity:1} 7%,100%{opacity:0} }
    @keyframes p2 { 0%,6.25%{opacity:0} 7.75%,100%{opacity:1} }
    @keyframes p3 { 0%,6.25%{opacity:0} 7%,8.75%{opacity:1} 9.5%,100%{opacity:0} }
    @keyframes p4 { 0%,8.75%{opacity:0} 10.25%,100%{opacity:1} }
    @keyframes p5 { 0%,8.75%{opacity:0} 9.5%,11.25%{opacity:1} 12%,100%{opacity:0} }
    @keyframes p6 { 0%,11.25%{opacity:0} 12.75%,100%{opacity:1} }
    @keyframes p7 { 0%,11.25%{opacity:0} 12%,13.75%{opacity:1} 14.5%,100%{opacity:0} }
    @keyframes p8 { 0%,13.75%{opacity:0} 15.25%,100%{opacity:1} }
    @keyframes p9 { 0%,13.75%{opacity:0} 14.5%,16.25%{opacity:1} 17%,100%{opacity:0} }
    @keyframes p10 { 0%,16.25%{opacity:0} 17.75%,100%{opacity:1} }
    @keyframes p11 { 0%,16.25%{opacity:0} 17%,25.506%{opacity:1} 26.256%,100%{opacity:0} }
    @keyframes p12 { 0%,25.506%{opacity:0} 27.006%,100%{opacity:1} }
    @keyframes p13 { 0%,25.506%{opacity:0} 26.256%,41.182%{opacity:1} 41.932%,100%{opacity:0} }
    @keyframes p14 { 0%,41.182%{opacity:0} 42.682%,100%{opacity:1} }
    @keyframes p15 { 0%,41.182%{opacity:0} 41.932%,68.682%{opacity:1} 69.432%,100%{opacity:0} }
    @keyframes p16 { 0%,68.682%{opacity:0} 70.182%,100%{opacity:1} }
    @keyframes p17 { 0%,68.682%{opacity:0} 69.432%,71.182%{opacity:1} 71.932%,100%{opacity:0} }
    @keyframes p18 { 0%,71.182%{opacity:0} 72.682%,100%{opacity:1} }
    @keyframes p19 { 0%,71.182%{opacity:0} 71.932%,73.682%{opacity:1} 74.432%,100%{opacity:0} }
    @keyframes p20 { 0%,3.75%{transform:scaleY(0)} 6.25%,100%{transform:scaleY(1)} }
    @keyframes p21 { 0%,6.25%{transform:scaleY(0)} 8.75%,100%{transform:scaleY(1)} }
    @keyframes p22 { 0%,8.75%{transform:scaleY(0)} 11.25%,100%{transform:scaleY(1)} }
    @keyframes p23 { 0%,11.25%{transform:scaleY(0)} 13.75%,100%{transform:scaleY(1)} }
    @keyframes p24 { 0%,13.75%{transform:scaleY(0)} 16.25%,100%{transform:scaleY(1)} }
    @keyframes p25 { 0%,16.25%{transform:scaleY(0)} 25.506%,100%{transform:scaleY(1)} }
    @keyframes p26 { 0%,25.506%{transform:scaleY(0)} 41.182%,100%{transform:scaleY(1)} }
    @keyframes p27 { 0%,41.182%{transform:scaleY(0)} 68.682%,100%{transform:scaleY(1)} }
    @keyframes p28 { 0%,68.682%{transform:scaleY(0)} 71.182%,100%{transform:scaleY(1)} }
    @keyframes p29 { 0%,71.182%{transform:scaleY(0)} 73.682%,100%{transform:scaleY(1)} }
    @keyframes p30 { 0%,25.506%{opacity:0} 28.006%,100%{opacity:1} }
    @keyframes p31 { 0%,41.182%{opacity:0} 43.682%,100%{opacity:1} }
    @keyframes p32 { 0%,68.682%{opacity:0} 71.182%,100%{opacity:1} }
  </style>
  <rect class="bg" x="0" y="0" width="900" height="220"/>
  <text class="hdr ink" x="24" y="22">importdb &#183; one command, ten phases</text>
  <rect class="grp" x="361" y="50" width="350" height="62" rx="6"/>
  <text class="gl good" x="536" y="44" text-anchor="middle">strip, load bare, build after</text>
  <text class="gl muted" x="876" y="44" text-anchor="end">Triggers last &#183; nothing fires during the load</text>
  <path class="chev" d="M104,75.5 L108,80 L104,84.5"/>
  <path class="chev" d="M190,75.5 L194,80 L190,84.5"/>
  <path class="chev" d="M276,75.5 L280,80 L276,84.5"/>
  <path class="chev" d="M362,75.5 L366,80 L362,84.5"/>
  <path class="chev" d="M448,75.5 L452,80 L448,84.5"/>
  <path class="chev" d="M534,75.5 L538,80 L534,84.5"/>
  <path class="chev" d="M620,75.5 L624,80 L620,84.5"/>
  <path class="chev" d="M706,75.5 L710,80 L706,84.5"/>
  <path class="chev" d="M792,75.5 L796,80 L792,84.5"/>
  <rect class="st" x="24" y="56" width="78" height="48" rx="5"/>
  <rect class="st" x="110" y="56" width="78" height="48" rx="5"/>
  <rect class="st" x="196" y="56" width="78" height="48" rx="5"/>
  <rect class="st" x="282" y="56" width="78" height="48" rx="5"/>
  <rect class="st" x="368" y="56" width="78" height="48" rx="5"/>
  <rect class="st" x="454" y="56" width="78" height="48" rx="5"/>
  <rect class="st" x="540" y="56" width="78" height="48" rx="5"/>
  <rect class="st" x="626" y="56" width="78" height="48" rx="5"/>
  <rect class="st" x="712" y="56" width="78" height="48" rx="5"/>
  <rect class="st" x="798" y="56" width="78" height="48" rx="5"/>
  <rect class="done a0" x="24" y="56" width="78" height="48" rx="5"/>
  <rect class="edge a0" x="24" y="56" width="3.5" height="48" rx="1.6"/>
  <rect class="hot a1" x="23" y="55" width="80" height="50" rx="5"/>
  <rect class="done a2" x="110" y="56" width="78" height="48" rx="5"/>
  <rect class="edge a2" x="110" y="56" width="3.5" height="48" rx="1.6"/>
  <rect class="hot a3" x="109" y="55" width="80" height="50" rx="5"/>
  <rect class="done a4" x="196" y="56" width="78" height="48" rx="5"/>
  <rect class="edge a4" x="196" y="56" width="3.5" height="48" rx="1.6"/>
  <rect class="hot a5" x="195" y="55" width="80" height="50" rx="5"/>
  <rect class="done a6" x="282" y="56" width="78" height="48" rx="5"/>
  <rect class="edge a6" x="282" y="56" width="3.5" height="48" rx="1.6"/>
  <rect class="hot a7" x="281" y="55" width="80" height="50" rx="5"/>
  <rect class="done a8" x="368" y="56" width="78" height="48" rx="5"/>
  <rect class="edge a8" x="368" y="56" width="3.5" height="48" rx="1.6"/>
  <rect class="hot a9" x="367" y="55" width="80" height="50" rx="5"/>
  <rect class="done a10" x="454" y="56" width="78" height="48" rx="5"/>
  <rect class="edge a10" x="454" y="56" width="3.5" height="48" rx="1.6"/>
  <rect class="hot a11" x="453" y="55" width="80" height="50" rx="5"/>
  <rect class="done a12" x="540" y="56" width="78" height="48" rx="5"/>
  <rect class="edge a12" x="540" y="56" width="3.5" height="48" rx="1.6"/>
  <rect class="hot a13" x="539" y="55" width="80" height="50" rx="5"/>
  <rect class="done a14" x="626" y="56" width="78" height="48" rx="5"/>
  <rect class="edge a14" x="626" y="56" width="3.5" height="48" rx="1.6"/>
  <rect class="hot a15" x="625" y="55" width="80" height="50" rx="5"/>
  <rect class="done a16" x="712" y="56" width="78" height="48" rx="5"/>
  <rect class="edge a16" x="712" y="56" width="3.5" height="48" rx="1.6"/>
  <rect class="hot a17" x="711" y="55" width="80" height="50" rx="5"/>
  <rect class="done a18" x="798" y="56" width="78" height="48" rx="5"/>
  <rect class="edge a18" x="798" y="56" width="3.5" height="48" rx="1.6"/>
  <rect class="hot a19" x="797" y="55" width="80" height="50" rx="5"/>
  <text class="ph ink" x="63" y="79" text-anchor="middle">Discover</text>
  <text class="ord muted" x="63" y="94" text-anchor="middle">1</text>
  <text class="ph ink" x="149" y="79" text-anchor="middle">Define</text>
  <text class="ord muted" x="149" y="94" text-anchor="middle">2</text>
  <text class="ph ink" x="235" y="79" text-anchor="middle">Graph</text>
  <text class="ord muted" x="235" y="94" text-anchor="middle">3</text>
  <text class="ph ink" x="321" y="79" text-anchor="middle">Plan</text>
  <text class="ord muted" x="321" y="94" text-anchor="middle">4</text>
  <text class="ph ink" x="407" y="79" text-anchor="middle">Strip</text>
  <text class="ord muted" x="407" y="94" text-anchor="middle">5</text>
  <text class="ph ink" x="493" y="79" text-anchor="middle">Load</text>
  <text class="ord muted" x="493" y="94" text-anchor="middle">6</text>
  <text class="ph ink" x="579" y="79" text-anchor="middle">Rebuild</text>
  <text class="ord muted" x="579" y="94" text-anchor="middle">7</text>
  <text class="ph ink" x="665" y="79" text-anchor="middle">FK define</text>
  <text class="ord muted" x="665" y="94" text-anchor="middle">8</text>
  <text class="ph ink" x="751" y="79" text-anchor="middle">Stats</text>
  <text class="ord muted" x="751" y="94" text-anchor="middle">9</text>
  <text class="ph ink" x="837" y="79" text-anchor="middle">Triggers</text>
  <text class="ord muted" x="837" y="94" text-anchor="middle">10</text>
  <line class="axis" x1="24" y1="124" x2="876" y2="124"/>
  <rect class="bar a20" x="50" y="124" width="26" height="1.2" rx="1.5"/>
  <rect class="bar a21" x="136" y="124" width="26" height="1.2" rx="1.5"/>
  <rect class="bar a22" x="222" y="124" width="26" height="1.2" rx="1.5"/>
  <rect class="bar a23" x="308" y="124" width="26" height="1.2" rx="1.5"/>
  <rect class="bar a24" x="394" y="124" width="26" height="1.2" rx="1.5"/>
  <rect class="bar a25" x="480" y="124" width="26" height="14.8093" rx="1.5"/>
  <rect class="bar a26" x="566" y="124" width="26" height="25.0817" rx="1.5"/>
  <rect class="bar a27" x="652" y="124" width="26" height="44" rx="1.5"/>
  <rect class="bar a28" x="738" y="124" width="26" height="1.36965" rx="1.5"/>
  <rect class="bar a29" x="824" y="124" width="26" height="1.2" rx="1.5"/>
  <text class="pctl ink a30" x="493" y="182" text-anchor="middle">17%</text>
  <text class="pctl ink a31" x="579" y="182" text-anchor="middle">29%</text>
  <text class="pctl ink a32" x="665" y="182" text-anchor="middle">51%</text>
  <text class="note muted" x="24" y="204">Bars are the measured share of a 3.93M-row run. Every bar rises at the same rate, so a bar&#8217;s height is the time that phase took.</text>
</svg>
